<svg xmlns="http://www.w3.org/2000/svg" fill="none" viewBox="-63.92 87.4 1911.62 652.15">
  <path stroke="#FFD60A" stroke-width="3" d="M-62.42 386.282c74.88 39.803 135.32 49.031 201.858 52.85 66.538 3.819 319.297-116.6 297.103-61.488-22.194 55.112 249.525 185.305 263.048 135.081-3.918-69.527 23.699-87.517 70.384-89.555 46.686-2.038 101.087-2.477 185.579 47.508 84.488 49.985 152.648 173.167 265.458 201.323 112.8 28.157 312.83 32.962 498.43-28.62" opacity=".3"></path>
  <path stroke="#F7797D" stroke-width="3" d="M-16.85 738.05c104.246-9.448 162.264-31.156 218.903-58.951 56.638-27.796 117.86-216.35 163.295-172.407 45.436 43.943 407.468.903 360.795-36.107-82.399-40.978-81.223-64.551-46.865-86.954 34.357-22.404 76.601-47.319 200.015-54.86 123.417-7.542 317.497 37.327 438.257 3.535 120.76-33.792 283.41-121.456 358.99-243.406" opacity=".3"></path>
  <path stroke="#FFD40D" stroke-width="3" d="M-61.395 395.55c76.273 38.782 137.13 47.243 203.927 50.234 66.798 2.991 316.365-120.236 295.831-64.99-20.534 55.247 255.798 181.771 267.794 131.506-6.081-69.305 21.037-87.589 67.76-90.196 46.722-2.607 101.225-3.714 187.446 45.105 86.217 48.82 158.337 170.854 272.257 197.552 113.92 26.698 314.52 29.03 498.61-34.682" opacity=".3"></path>
  <path stroke="#FFD110" stroke-width="3" d="M-60.35 404.784c77.636 37.746 138.884 45.437 205.917 47.598 67.034 2.162 313.314-123.827 294.448-68.466-18.866 55.36 261.976 178.167 272.44 127.88-8.242-69.056 18.368-87.628 65.109-90.803 46.741-3.176 101.326-4.951 189.243 42.686 87.913 47.636 163.973 168.477 278.963 193.706 114.99 25.229 316.09 25.087 498.6-40.73" opacity=".3"></path>
  <path stroke="#FECF12" stroke-width="3" d="M-59.29 413.983c78.972 36.697 140.59 43.614 207.832 44.946 67.243 1.331 310.145-127.372 292.954-71.918-17.191 55.454 268.055 174.496 276.983 124.208-10.399-68.782 15.692-87.635 62.435-91.378 46.742-3.742 101.388-6.185 190.969 40.251 89.577 46.435 169.537 166.037 285.557 189.788 116.02 23.751 317.54 21.135 498.4-46.763" opacity=".3"></path>
  <path stroke="#FECD15" stroke-width="3" d="M-58.213 423.148c80.277 35.633 142.24 41.775 209.667 42.275 67.428.501 306.859-130.869 291.35-75.342-15.509 55.526 274.034 170.761 281.423 120.488-12.552-68.481 13.01-87.607 59.736-91.916 46.726-4.308 101.413-7.417 192.624 37.8 91.213 45.216 175.043 163.534 292.043 185.798 117.01 22.264 318.88 17.175 498.02-52.778" opacity=".3"></path>
  <path stroke="#FECB18" stroke-width="3" d="M-57.121 432.278c81.553 34.556 143.837 39.92 211.424 39.59 67.587-.331 303.458-134.317 289.637-78.739-13.822 55.578 279.909 166.961 285.756 116.724-14.701-68.155 10.323-87.548 57.015-92.421 46.692-4.873 101.4-8.646 194.206 35.335 92.803 43.981 180.483 160.97 298.423 181.739 117.94 20.768 320.09 13.208 497.44-58.774" opacity=".3"></path>
  <path stroke="#FEC81B" stroke-width="3" d="M-56.016 441.374c82.798 33.465 145.382 38.05 213.102 36.888 67.721-1.161 299.943-137.713 287.814-82.104-12.128 55.609 285.68 163.098 289.983 112.914-16.845-67.803 7.632-87.455 54.273-92.89 46.64-5.435 101.347-9.872 195.714 32.856 94.37 42.729 185.86 158.346 304.69 177.612 118.84 19.265 321.18 9.236 496.68-64.747" opacity=".3"></path>
  <path stroke="#FEC61E" stroke-width="3" d="M-54.897 450.434c84.01 32.363 146.87 36.166 214.699 34.174 67.829-1.991 296.315-141.058 285.884-85.44-10.432 55.619 291.342 159.174 294.099 109.064-18.981-67.426 4.939-87.331 51.51-93.326 46.572-5.995 101.258-11.094 197.15 30.366 95.895 41.461 191.165 155.662 310.845 173.417 119.69 17.754 322.15 5.261 495.73-70.696" opacity=".3"></path>
  <path stroke="#FDC420" stroke-width="3" d="M-53.767 459.46c85.193 31.248 148.304 34.268 216.216 31.447 67.912-2.822 292.576-144.351 283.846-88.744-8.731 55.608 296.895 155.19 298.105 105.171-21.111-67.023 2.244-87.172 48.729-93.725 46.485-6.553 101.13-12.313 198.511 27.864 97.38 40.177 196.39 152.919 316.88 169.157 120.49 16.237 323 1.284 494.6-76.619" opacity=".3"></path>
  <path stroke="#FDC223" stroke-width="3" d="M-52.626 468.451c86.343 30.121 149.682 32.357 217.651 28.707 67.97-3.649 288.727-147.589 281.701-92.013-7.026 55.575 302.337 151.147 302 101.239-23.232-66.595-.453-86.981 45.929-94.09 46.381-7.108 100.964-13.526 199.797 25.352C1093.29 476.523 1196 587.765 1317.25 602.479c121.25 14.715 323.73-2.693 493.28-82.512" opacity=".3"></path>
  <path stroke="#FDBF26" stroke-width="3" d="M-51.475 477.407c87.46 28.983 151.003 30.434 219.004 25.957 68.002-4.477 284.77-150.772 279.451-95.249-5.319 55.522 307.665 147.048 305.781 97.269-25.346-66.142-3.149-86.757 43.11-94.418 46.26-7.662 100.761-14.735 201.01 22.829s206.629 147.263 328.599 160.448c121.96 13.186 324.33-6.67 491.77-88.374" opacity=".3"></path>
  <path stroke="#FDBD29" stroke-width="3" d="M-50.316 486.328c88.544 27.834 152.268 28.499 220.276 23.197 68.007-5.302 280.705-153.897 277.095-98.449-3.61 55.449 312.877 142.894 309.446 93.263-27.449-65.664-5.844-86.501 40.277-94.712 46.121-8.212 100.519-15.937 202.145 20.299 101.627 36.236 211.637 144.351 334.267 156.002 122.64 11.652 324.82-10.643 490.08-94.204" opacity=".3"></path>
  <path stroke="#FDBB2C" stroke-width="3" d="M-49.15 495.213c89.596 26.675 153.477 26.555 221.465 20.429 67.988-6.126 276.535-156.965 274.635-101.611-1.899 55.354 317.972 138.686 312.996 89.221-29.542-65.162-8.537-86.212 37.428-94.97 45.965-8.759 100.239-17.134 203.206 17.761 102.97 34.895 216.56 141.385 339.81 151.498 123.26 10.113 325.19-14.614 488.21-99.998" opacity=".3"></path>
  <path stroke="#FCB92E" stroke-width="3" d="M-47.976 504.064c90.613 25.506 154.626 24.6 222.569 17.653 67.944-6.947 272.261-159.974 272.072-104.736-.188 55.239 322.948 134.426 316.429 85.147-31.625-64.636-11.227-85.891 34.565-95.193 45.791-9.302 99.921-18.325 204.191 15.216 104.26 33.54 221.4 138.365 345.23 146.937 123.83 8.571 325.42-18.579 486.15-105.755" opacity=".3"></path>
  <path stroke="#FCB631" stroke-width="3" d="M-46.798 512.88c91.597 24.327 155.719 22.635 223.592 14.869 67.873-7.765 267.884-162.923 269.407-107.82 1.522 55.102 327.801 130.114 319.741 81.039-33.695-64.084-13.912-85.537 31.689-95.379 45.601-9.842 99.567-19.508 205.099 12.665 105.52 32.173 226.16 135.295 350.52 142.321 124.36 7.026 325.54-22.536 483.91-111.471" opacity=".3"></path>
  <path stroke="#FCB434" stroke-width="3" d="M-45.615 521.661c92.546 23.138 156.752 20.662 224.529 12.081 67.777-8.582 263.407-165.811 266.64-110.865 3.234 54.945 332.532 125.754 322.934 76.901-35.752-63.508-16.592-85.151 28.801-95.53 45.393-10.378 99.175-20.684 205.921 10.11 106.75 30.794 230.84 132.173 355.68 137.651 124.85 5.478 325.54-26.485 481.49-117.146" opacity=".3"></path>
  <path stroke="#FCB237" stroke-width="3" d="M-44.428 530.406c93.46 21.942 157.726 18.682 225.381 9.289 67.656-9.394 258.831-168.636 263.774-113.868 4.943 54.767 337.137 121.347 326.005 72.735-37.797-62.909-19.266-84.734 25.902-95.645 45.169-10.911 98.746-21.853 206.676 7.551 107.93 29.403 235.42 129.001 360.71 132.929 125.28 3.928 325.41-30.424 478.88-122.777" opacity=".3"></path>
  <path stroke="#FCAF3A" stroke-width="3" d="M-43.24 539.117c94.34 20.737 158.641 16.694 226.15 6.492 67.509-10.203 254.157-171.398 260.807-116.828 6.651 54.569 341.616 116.895 328.954 68.542-39.826-62.287-21.932-84.285 22.994-95.724 44.927-11.44 98.279-23.013 207.355 4.988 109.07 28.002 239.92 125.781 365.59 128.158 125.67 2.377 325.16-34.352 476.1-128.361" opacity=".3"></path>
  <path stroke="#FBAD3C" stroke-width="3" d="M-42.05 547.793c95.182 19.524 159.496 14.7 226.833 3.693 67.336-11.008 249.388-174.095 257.743-119.744 8.356 54.351 345.967 112.398 331.779 64.322-41.841-61.641-24.59-83.803 20.077-95.767 44.668-11.964 97.775-24.164 207.948 2.425 110.17 26.589 244.33 122.513 370.34 123.338 126.02.824 324.79-38.267 473.14-133.898" opacity=".3"></path>
  <path stroke="#FBAB3F" stroke-width="3" d="M-40.861 556.434c95.99 18.304 160.292 12.701 227.431.893 67.139-11.809 244.525-176.727 254.583-122.616 10.057 54.112 350.187 107.86 334.479 60.079-43.84-60.971-27.24-83.29 17.153-95.774 44.392-12.483 97.234-25.307 208.465-.14 111.23 25.168 248.65 119.2 374.96 118.472 126.3-.728 324.29-42.167 469.99-139.383" opacity=".3"></path>
  <path stroke="#FBA942" stroke-width="3" d="M-39.673 565.041c96.763 17.077 161.028 10.696 227.944-1.909s239.57-179.292 251.326-125.44c11.756 53.852 354.276 103.28 337.054 55.812-45.823-60.278-29.878-82.746 14.222-95.744 44.1-12.998 96.658-26.44 208.907-2.705 112.25 23.735 252.87 115.841 379.42 113.561 126.56-2.28 323.69-46.052 466.69-144.817" opacity=".3"></path>
  <path stroke="#FBA645" stroke-width="3" d="M-38.487 573.613c97.499 15.843 161.703 8.688 228.371-4.709S424.41 387.113 437.859 440.686c13.449 53.573 358.231 98.662 339.502 51.525-47.788-59.563-32.506-82.171 11.285-95.679 43.792-13.508 96.045-27.563 209.269-5.269 113.225 22.295 256.995 112.439 383.755 108.608 126.75-3.832 322.94-49.919 463.19-150.196" opacity=".3"></path>
  <path stroke="#FBA448" stroke-width="3" d="M-37.303 582.15c98.197 14.604 162.316 6.677 228.711-7.506 66.396-14.184 229.393-184.221 244.531-130.948 15.138 53.273 362.052 94.007 341.822 47.218-49.736-58.826-35.121-81.565 8.345-95.578 43.466-14.013 95.395-28.676 209.552-7.83C1109.81 408.351 1256.69 496.5 1383.59 491.119c126.91-5.382 322.09-53.768 459.52-155.519" opacity=".3"></path>
  <path stroke="#FBA24B" stroke-width="3" d="M-36.125 590.653c98.86 13.359 162.869 4.663 228.967-10.302 66.097-14.965 224.173-186.581 240.994-133.628 16.821 52.953 365.737 89.316 344.015 42.894-51.665-58.067-37.725-80.928 5.4-95.441 43.125-14.513 94.71-29.778 209.756-10.389 115.043 19.388 264.963 105.509 391.973 98.58 127.01-6.93 321.11-57.596 455.68-160.783" opacity=".3"></path>
  <path stroke="#FAA04D" stroke-width="3" d="M-34.951 599.121c99.483 12.11 163.361 2.648 229.135-13.093 65.775-15.741 218.87-188.872 237.368-136.258 18.498 52.613 369.284 84.592 346.077 38.553-53.574-57.285-40.312-80.261 2.455-95.268 42.767-15.007 93.989-30.868 209.881-12.944 115.895 17.924 268.795 101.985 395.865 93.51 127.06-8.475 320-61.403 451.67-165.987" opacity=".3"></path>
  <path stroke="#FA9D50" stroke-width="3" d="M-33.785 607.556c100.071 10.855 163.792.631 229.219-15.88 65.427-16.51 213.484-191.091 233.651-138.837 20.168 52.254 372.693 79.836 348.01 34.199-55.464-56.483-42.885-79.564-.492-95.06 42.393-15.496 93.233-31.947 209.927-15.494 116.69 16.454 272.53 98.421 399.6 88.404 127.08-10.017 318.79-65.186 447.5-171.127" opacity=".3"></path>
  <path stroke="#FA9B53" stroke-width="3" d="M-32.625 615.957c100.62 9.597 164.16-1.386 229.215-18.66 65.055-17.275 208.018-193.239 229.848-141.364 21.829 51.874 375.961 75.05 349.811 29.83-57.332-55.658-45.442-78.836-3.439-94.815 42.004-15.978 92.442-33.014 209.895-18.038 117.455 14.976 276.165 94.821 403.195 83.266 127.03-11.556 317.45-68.945 443.14-176.205" opacity=".3"></path>
  <path stroke="#FA9956" stroke-width="3" d="M-31.474 624.324c101.133 8.334 164.467-3.403 229.125-21.434 64.659-18.031 202.474-195.314 225.958-143.838 23.483 51.476 379.088 70.236 351.481 25.452-59.179-54.814-47.982-78.08-6.384-94.535 41.598-16.456 91.616-34.069 209.784-20.576 118.17 13.494 279.69 91.186 406.63 78.096 126.95-13.09 315.99-72.678 438.63-181.216" opacity=".3"></path>
  <path stroke="#FA9659" stroke-width="3" d="M-30.333 632.658c101.607 7.069 164.712-5.418 228.95-24.2s196.854-197.315 221.982-146.257c25.129 51.057 382.072 65.395 353.019 21.063-61.003-53.948-50.503-77.294-9.326-94.22 41.176-16.926 90.756-35.111 209.593-23.105 118.835 12.006 283.115 87.515 409.925 72.896s314.41-76.384 433.95-186.158" opacity=".3"></path>
  <path stroke="#F9945B" stroke-width="3" d="M-29.202 640.958c102.042 5.801 164.895-7.431 228.688-26.956 63.792-19.525 191.159-199.243 217.923-148.622 26.765 50.62 384.914 60.53 354.425 16.666-62.805-53.062-53.006-76.478-12.266-93.868s89.861-36.14 209.324-25.626c119.458 10.513 286.428 83.812 413.058 67.669 126.62-16.142 312.71-80.061 429.1-191.03" opacity=".3"></path>
  <path stroke="#F9925E" stroke-width="3" d="M-28.084 649.225c102.44 4.531 165.017-9.441 228.341-29.702C263.58 599.262 385.65 418.428 414.04 468.592c28.39 50.164 387.609 55.642 355.696 12.263-64.583-52.156-55.488-75.634-15.201-93.482 40.288-17.847 88.934-37.154 208.977-28.137 120.038 9.017 289.638 80.078 416.028 62.417 126.4-17.66 310.9-83.708 424.11-195.831" opacity=".3"></path>
  <path stroke="#F99061" stroke-width="3" d="M-26.977 657.459c102.798 3.259 165.076-11.448 227.906-32.438 62.831-20.989 179.558-202.871 209.562-153.182 30.005 49.689 390.16 50.733 356.835 7.856-66.337-51.231-57.951-74.762-18.13-93.061 39.821-18.298 87.972-38.155 208.55-30.638 120.574 7.517 292.734 76.313 418.854 57.142s308.97-87.324 418.94-200.559" opacity=".3"></path>
  <path stroke="#F98D64" stroke-width="3" d="M-25.885 665.661c103.118 1.985 165.073-13.451 227.387-35.161 62.315-21.71 173.654-204.572 205.262-155.377 31.609 49.195 392.564 45.805 357.839 3.446-68.065-50.286-60.39-73.861-21.052-92.604 39.339-18.743 86.977-39.143 208.046-33.128 121.063 6.015 295.723 72.52 421.513 51.845 125.8-20.675 306.92-90.906 413.62-205.211" opacity=".3"></path>
  <path stroke="#F98B67" stroke-width="3" d="M-24.808 673.83c103.4.712 165.008-15.448 226.783-37.871 61.774-22.422 167.685-206.196 200.885-157.513 33.2 48.683 394.82 40.86 358.709-.966-69.769-49.322-62.809-72.933-23.967-92.112 38.842-19.18 85.95-40.115 207.462-35.605 121.516 4.51 298.596 68.699 424.026 46.528 125.42-22.17 304.75-94.454 408.14-209.785" opacity=".3"></path>
  <path stroke="#F88969" stroke-width="3" d="M-23.747 681.966c103.642-.562 164.882-17.439 226.093-40.565C263.557 618.275 364 433.659 398.779 481.811c34.779 48.152 396.928 35.899 359.443-5.377-71.446-48.34-65.202-71.978-26.871-91.587 38.33-19.61 84.889-41.072 206.801-38.068 121.908 3.004 301.368 64.853 426.368 41.194 125-23.658 302.48-97.968 402.51-214.281" opacity=".3"></path>
  <path stroke="#F8876C" stroke-width="3" d="M-22.702 690.071c103.845-1.835 164.692-19.424 225.318-43.245 60.625-23.822 155.561-209.211 191.906-161.607 36.346 47.604 398.887 30.925 360.043-9.787-73.096-47.339-67.571-70.994-29.766-91.026 37.804-20.032 83.798-42.013 206.062-40.517 122.269 1.496 304.019 60.982 428.549 35.844 124.54-25.137 300.09-101.444 396.73-218.696" opacity=".3"></path>
  <path stroke="#F8846F" stroke-width="3" d="M-21.676 698.145c104.01-3.109 164.442-21.402 224.458-45.91 60.017-24.507 149.41-210.6 187.309-163.562 37.898 47.037 400.695 25.939 360.507-14.193-74.719-46.321-69.915-69.985-32.651-90.432 37.264-20.447 82.675-42.938 205.247-42.95 122.576-.013 306.556 57.088 430.576 30.481 124.02-26.606 297.59-104.882 390.8-223.03" opacity=".3"></path>
  <path stroke="#F88272" stroke-width="3" d="M-20.669 706.187c104.136-4.381 164.13-23.372 223.515-48.556 59.385-25.185 143.203-211.91 182.639-165.457 39.436 46.453 402.353 20.944 360.836-18.593-76.313-45.286-72.233-68.949-35.522-89.803 36.71-20.854 81.52-43.849 204.353-45.369 122.828-1.52 308.978 53.173 432.438 25.107 123.46-28.066 294.97-108.28 384.72-227.279" opacity=".3"></path>
  <path stroke="#F88075" stroke-width="3" d="M-19.681 714.198c104.221-5.651 163.755-25.332 222.486-51.184 58.731-25.853 136.942-213.141 177.902-167.29 40.96 45.851 403.86 15.941 361.029-22.986-77.879-44.233-74.523-67.887-38.381-89.141 36.143-21.254 80.336-44.741 203.383-47.769 123.052-3.028 311.282 49.238 434.142 19.723 122.85-29.515 292.24-111.639 378.49-231.443" opacity=".3"></path>
  <path stroke="#F77E77" stroke-width="3" d="M-18.715 722.179c104.27-6.919 163.319-27.284 221.375-53.794 58.055-26.51 130.629-214.291 173.097-169.059 42.468 45.232 405.215 10.932 361.087-27.37-79.416-43.165-76.785-66.801-41.225-88.446 35.561-21.645 79.121-45.618 202.337-50.152 123.214-4.534 313.474 45.284 435.674 14.332 122.21-30.952 289.41-114.955 372.13-235.52" opacity=".3"></path>
  <path stroke="#F77B7A" stroke-width="3" d="M-17.77 730.129c104.276-8.185 162.821-29.225 220.179-56.383 57.358-27.158 124.268-215.361 168.228-170.765 43.96 44.596 406.418 5.919 361.009-31.744-80.923-42.079-79.019-65.688-44.053-87.717 34.965-22.028 77.876-46.477 201.214-52.516 123.333-6.039 315.543 41.314 437.053 8.935 121.5-32.378 286.46-118.227 365.62-239.507" opacity=".3"></path>
</svg>