<svg xmlns="http://www.w3.org/2000/svg" viewBox="0 0 666 666">
    <g >
        <path d="M0 126a1719 1719 0 0 0 1 127L0 460v206h23a329 329 0 0 0 28-2c-2 0-3 0-2-1l3-1v-2c-2-1-2-1 1-1l3-1-3-1-3-3v-2c1-1 1-1-1-2s-2-1 1-2h3l-3-1-1-1-1-1c-1-1-1-1 2-1s4 0 2-1c-4 0-5-2-3-4 2-1 2-1 0-1s-2 0-1-1l3-1v-2c-2-1-2-1 1-1h2l-3-1-1-1v-1l1-1c1 0 1-1-1-1-1-1-1-1 1-1l2-1v-1c1-1 0-1-1-1-4 0-3-1 0-2 2-1 1-1-2-1h-4l4-1c4-1 4-1 1-1l-4-1c-1-1-1-1 1-2s2-1 1-2c-3-1-2-3 1-3 4 0 4-2 0-2-2 0-2 0 1-1 4-1 4-1 1-1h-3l3-1c3-1 3-1-1-1-6 0-6-1 0-3l2-1c-2 0-2 0-1-1 2-1 2-1-1-1s-3 0-2-1v-2c-1-2-1-2 1-2 3 0 3-3 0-4-1-1-1-1 1-1 3 0 2-3-1-3s-1-2 3-2c2-1 2-1-2-1h-4l3-1c3-1 3-1 1-2-3 0-3-2 1-2 2 0 2 0 1-1l-1-2-2-1c-2 0-3-1-3-2l3-1c2 0 2 0 0-1-1-1-1-1 1-1s2 0 1-1c-2-1-2-1-1-2l-2-1c-3-1-3-3 0-3l4-1c1-1 1-1-1-1-1 1-2 0-2-1l-1-1c-3 0-2-2 0-3l1-2c-2 0-1-1 1-1l3-1h-4c-3 0-3 0-1-1v-2l-1-1 2-1c-1-1 0-2 1-2s1-1-1-1c-2-1-2-1 1-1s3 0 1-1l-2-1h2c2-1 1-1-2-1-6 0-5-2 1-2 4 0 4 0 1-1-3 0-3-1-1-1 2-1 2-1 1-2s-1-1 1-1c2-1 2-1 0-1-4 0-5-2-1-2 2 0 2 0-1-1-4-1-4-1-1-1 4 0 3-2-1-2-3 0-3 0-2-1l2-2 3-2 3-1-3-2-3-1 3-3 3-2h-5c-4 0-4 0-1-1 3 0 3 0 2-1-2-1-2-1 0-1s2 0 1-1c-2-2-2-2 1-2 2-1 1-1-2-1-4 0-4 0-3-1l4-2 3-1c0-1-1-2-3-2-1 0-2 0-1-1l-1-1c-2 0-1-2 1-3s2-1-1-1h-4l4-1c4-1 4-1 1-1l-4-1 4-2c3 0 3 0 1-1-2 0-2 0 0-1 1-1 1-1-1-1-3 0-4-2-1-2v-1c-3 0-2-3 1-3s3-1-2-4c-3-2-3-2-1-2l2-1 3-2c2 0 1-2-1-2-3-1-3-2 1-3l3-1h-7l3-1c2-1 2-1 0-1s-2 0 1-1l3-1h-7l3-1 4-1h-4c-4 0-4 0-1-1l3-1h-3c-3-1-3-1-2-2l4-2-2-1c-2-1-3-1-2-2l-1-1-1-1c0-1 1-2 4-2 2 0 3 0 2-1-2 0-2-2-1-2 1-1 0-1-2-1-4 0-3-1 2-2l4-1h-4c-5 0-6-2-1-2 3 0 4 0 4-2s-1-2-4-2h-4l4-1c2 0 3-1 1-1-3 0-4-2-1-2 4 0 4-2 1-2-2 0-2 0 1-1 2-1 2-1 0-1s-2 0 0-1c1-1 1-1-1-2-3 0-4-2-1-3 1 0 1-1-2-2l-2-1h3c2 0 2 0 1-1v-1c4-2 4-2 2-2-1 0-2 0-1-1l-2-1c-2 0-2 0 0-1l3-1h-3c-3 0-3-2-1-4l1-2 1-1 2-1-4-1c-3 0-3-2 1-3 3 0 3 0 2-1l-1-1-1-1v-3h2l3 1 9 4v1c-2 2-2 2 0 2l5 1c3 1 4 1 3 2v1l2 1c0 2 5 5 7 5 3 0 3 0 2 1s-1 1 1 1l4 1 3 1c2 0 2 0 1 1s-1 1 1 2c2 0 2 0 0 1-1 1-1 1 3 1l4 2c-1 1 1 3 5 3l4 2c-1 1 0 1 2 1 3 0 3 0 1 1s-2 1 1 1 6 2 2 2c-3 0 1 2 5 2 3 0 3 0-1 1-3 1-3 1 2 1l5 1 3 2c3 1 2 1-1 1-4 0-4 0-2 1l6 1c2 0 3 0 2 1-5 1-4 2 0 2l4 1 2 2 3 1h-2c-3 0-3 0-1 1l3 2 2 1 5 2c2 0 4 0 3 1-2 1 0 3 4 4 4 0 4 0 2 1s-1 1 2 1c5 0 5 0 3 1s-2 1 1 1c4 0 4 0 2 1s-2 1 1 1 3 0 1 1c-1 1-1 1 2 1s4 0 3 1c-3 0-2 2 1 2 6 2 7 2 7 4l-2 2 8 3c6 2 7 2 5 3h-2l2 2 5 1v1c-2 1 1 2 5 2 3 0 3 0 2 1s-1 1 2 1h3l-3 1-2 1 2 1 5 1c4 0 4 0 1 1l-4 1h5c3 0 4 0 3 1 0 2 6 5 10 5l3 1c2 2 2 2 0 2-1 0-2 0-1 1v1l5 1c3 0 4 0 2 1-1 0-1 1 2 1 3 1 3 1 2 2s-1 1 1 1h2l-2 1c-2 1-2 1 2 1s5 0 6 2 1 2-1 2 0 1 3 2l4 2c-2 1-1 3 0 3l2 1c0 1 1 2 3 2l5 1-1 1c-1 1 0 1 2 1 4 0 4 0 2 1l-2 1h2l5 1c2 0 2 0 1 1s-1 1 1 1l2 1c-1 2 0 2 5 2h6l-6 1c-8 1-6 2 4 2 4 0 6 0 4 1-1 1-1 1 2 1h3l-3 1-3 1h4c2 0 3 0 2 1-1 0-1 1 1 1 1 1 2 1 1 2l2 1 3 1 4 2c3 0 3 0 1 1-1 1-1 1 1 1l3 2 3 3 3 1 5 1c3 0 3 1-1 2-1 1-1 1 1 2l6 1 2 1 2 1c2 1 3 1 2 2s-1 1 1 1 2 0 1 1c-2 0-2 0 0 2l4 1 7 2 2 2c-1 0-2 0-1 1l3 1c3 0 3 0 2 1-2 2-2 2 3 2 3 0 4 0 3 1-4 0-3 2 1 2 3 0 7 2 5 3-1 1 0 1 1 1l4 1 3 2-1 1c-2 1-2 1 1 1l4 3 4 1 3 1c-1 1 0 1 2 1h3l-3 1c-4 2-3 3 3 3 4 0 5 0 4 1-2 1-2 1 2 1h4l-4 1-3 1h3c4 0 7 2 3 2-3 0-1 2 3 3l3 2c-2 1 0 2 6 3 5 0 5 1 3 1-3 1-3 1 1 1 3 0 4 0 3 1-2 1-1 2 3 2l3 1c-1 1 0 1 1 1v1c-2 1-2 1 0 1l4 2 5 2c2 0 2 0 1 1-2 1-2 1 1 1 3 1 4 2 2 3-1 1 0 1 1 1l4 2 6 3 2 1c-3 0-3 0-1 1l2 1 3 1c3 0 4 2 1 2l3 1 4 2c-1 1 0 1 1 1l2 1 9 4c2 0 2 0 1 1l-1 1 4 1c2 1 2 1 1 2-2 1-1 1 2 1h5l-4 1a2631 2631 0 0 0 176-2c2-1 1-2-3-3-3 0-3 0-1-1 2 0 2-1-3-2l-6-3-2-1-3-1-4-2c-2 0-2 0 0-1 1-2 1-2-2-2s-4 0-3-1l-3-1c-2 0-2 0 1-1l4-1h-4c-4 0-8-2-8-4l-3-1c-3 0-3 0-1-1 1-1 1-1-1-2l-4-1 1-1c2-1 2-1-1-1s-4 0-3-1l-1-1c-1 0-2 0-1-1l-3-1c-1 0-2 0-1-1 2 0-1-3-4-3s-5-2-2-2c1-1-1-1-3-1-5 0-5 0-2-1l4-1h-4c-5 0-9-2-9-3l-2-2-5-2c-1-1-1-1 2-1 4 0 1-2-3-2h-3l3-1 3-1h-4c-3 0-3 0-1-1 1-1 0-1-4-1-6 0-8-1-3-3l2-1h-3c-3 0-3 0-2-1s0-1-3-1l-4-1-3-2c-2-1-3-2-1-2l-1-1-2-2-3-1c-2 0-2 0-1-1v-1l-2-1-3-1c-4 0-5-2-2-2l-3-1c-3 0-5 0-4-1 3 0 2-2 0-2-3 0-5-2-2-2 1-1 1-1-1-1l-2-1-4-1-7-2-2-1 2-1c2-1 2-1 0-1-3 0-3 0-1-1 1-1 1-1-2-1l-3-2-5-1c-4-1-6-3-3-3l3-1-1-1c-1 1-10-2-12-4l-1-2-3-1h-3l3-1c2-1 2-1-2-1l-4-1-2-2c-3 0-3 0-2-1s1-1-1-2l-1-1-3-1h-3l3-1c2-1 2-1-1-1-2 0-2 0-1-1s0-1-3-1c-6 0-9-2-3-2h4l-4-1-3-1c2 0 0-2-2-2s-2 0-1-1c2-1 2-1-1-1l-5-1 1-1c1-1 0-1-3-1-4 0-4 0-2-1 2 0 2-1 1-1l-6-1-3-1c1-1 0-1-1-2-2 0-2 0-1-2s1-2-2-2h-2c1-1 1-1-2-2l-3-1v-2c-1-2-2-2-6-2-5 0-5 0-3-1l3-1h-3c-2 0-2 0-1-1 2-1 2-1-1-1-3-1-3-1-2-2 2-1 1-1-2-1l-5-1c-1-1 0-2 1-2 2 0 2 0 1-1l-2-1-4-1-3-1-2-1c-2 0-2-1-2-2 0-2-1-2-5-2h-5l4-1 4-1h-4l-6-1c-2-2-2-2 1-2l2-1h-2l-3-1c1-1 0-1-1-1l-5-1v-1c1-1 1-1-1-1l-4-1-1-2c4 0 1-1-6-4l-5-2v-3c3 0-1-2-4-2l-4-1-3-1 3-1c2-1 2-1-2-1s-4 0-2-1 2-1-1-1-3 0-1-1 2-1-2-1-4 0-2-1c3-1 3-1-2-1-3 0-4 0-3-1 2-1 2-1-2-1l-3-2-1-1v-1c2-1 2-1-1-1l-9-3-6-3h4c3 0 3 0 1-1l-4-2-4-1c-4 0-4-2 0-2 2-1 1-1-2-1-6 0-9-2-4-2h3l-3-2-7-2c-4 0-4 0-2-1l3-1h-3c-3 0-7-2-4-2s1-2-2-2-3 0-1-1 2-1-1-1-3 0-2-1v-1l-9-3-4-3c-4 0-4 0-2-1s2-1 0-1-3-1-1-2c1-1 0-1-2-1l-3-1-3-1c-3 0-3 0-2-1 2-1 2-1-1-1l-4-1-2-1-1-1v-1l-1-1c1-1 0-1-1-1l-1-1c1-1-1-2-5-2s-5-1-2-3c1-1 1-1-1-1l-3-1-2-1-3-1-2-2c-2 0-2 0 0-1s2-1-2-1l-4-1c1-1 0-1-2-1h-3l3-1c3-1 3-1 1-1s-2 0-1-1 1-1-1-1c-4 0-7-1-7-3l-1-1c-4 0-11-3-14-6s-3-3-1-4c1-1 0-1-3-2l-3-1c2 0 2 0 1-1l-4-1-4-1-3-1c-1-1-1-1 1-1s3-2 0-2l-4-1v-2l-2-1-4-1-6-3c-2-2-2-2 1-2 2 0 2 0 0-1l-4-1-5-1c-4-1-4-1-1-2s2-1-5-3c-4 0-4-1-3-2 2-2 2-2-3-2-3 0-4 0-2-1 2 0 2-1 1-2l-6-2h-5l4-1 3-1h-4c-2 0-3 0-2-1 2 0 1-1-3-2s-6-3-2-3l2-1 2-1-1-1c-1-1-1-1 1-1 3 0 4-2 2-2s1-3 4-4l3-1c0-1 1-2 4-2 4-1 4-1 1-1-4 0-3-2 2-2l5-1c3-1 3-1-2-2-1-1 0-1 1-1 3 0 7-3 5-3l2-1c4-1 5-3 2-3l3-1c6 0 8-2 2-2l-4-1h5c4-1 4-1 1-2-2-1-1-1 3-1s5 0 4-1c-3 0-3 0-2-2l3-1 4-1c2-1 2-1 1-2s-1-1 1-1h2l-2-1c-2 0-2-1 2-1 4-1 5-1 4-2-2 0-2-1-1-2l4-1 1-2 2-1 3-1 2-2c2 0 2 0 0-1-1-1-1-1 2-1 5 0 8-2 3-2-3 0-3 0-1-1l3-1 2-1-1-1c-2-1-2-1 1-1l3-2 1-1 2-1h2l2-1 1-1v-1c-1-2-1-2 1-2l5-1 3-2h-2c-5 0-2-2 4-3 5 0 5 0 2-1l-4-1h4c4 0 8-2 4-2l-3-1 5-1h5l-3-1c-2-2-2-2 0-2l2-3 5-1c3 0 5 0 3-1-4-1-3-2 1-2s5-1 2-4v-1l3-1 6-4 4-3 3-1 3-1 2-1c2 0 2 0 0-1s-2-1-1-3l1-1 3-1 4-3 2-1 4-1v-2c-2 0-2 0 0-2l4-2 1-1 5-1c4-1 5-1 3-2-1-1-1-1 1-2 2 0 2 0 0-1-1-1-1-1 1-1s3 0 2-1l3-1 4-1c2-2 2-2-1-2s-3 0 1-1c5-1 5-2 3-2-2-1-2-1 0-1 3 0 3 0 1-1-1-1-1-1 2-1l3-1 2-2c1 0 2 0 1-1l2-1 2-1c-1-2 0-2 1-2 2 0 2 0 1-1s-1-1 1-1h3l-3-1c-2-1-2-1 4-2 5 0 5-1 3-1-5 0-2-2 3-2 4 0 5-1 2-3-1-1-1-1 1-1 3 0 3 0 2-1-1-2 0-2 3-3 3 0 4-1 2-1s-1-1 2-1c5-2 5-2 3-3s-2-1 2-1l4-1c1-1 0-1-1-1-5 0-3-2 1-3 4 0 4 0 2-1l-1-1 6-1 3-2 2-2 2-1h-2c-2 0-2 0 1-1s3-1 1-2-2-1 2-1c5 0 5 0 2-1h-3l2-2 7-2c4 0 5-1 2-1h-3l3-1 4-2 2-2 4-2c3-1 3-1 0-1-6 0-4-2 2-2 5 0 5 0 2-1-2-1-2-1 0-1l4-1c1-1 1-1-2-1-2 0-2 0 1-1 4-2 4-2 2-2-2-1-1-1 2-1 4 0 4 0 2-1-3-1-1-2 4-2 4 0 5-3 2-3-2 0-1-1 2-1s4 0 2-1c-1-1-1-1 1-1l3-1 3-2c3-1 3-1 1-1s-2 0 0-1l2-1c-3 0-2-2 0-2l3-1 2-1 4-1 3-1-3-2-3-1h4l4-1v-2l4-2c3 0 4 0 3-1v-1c2 0 2 0 1-1s-1-1 2-1l3-1h-3l-3-1c0-1 2-2 8-3h4l-3-2-3-1h4c2 0 3-1 3-2l3-1c3 0 3 0 1-1-1-1-1-1 3-2s4-1 1-1h-3l4-1c2-1 3-2 1-2-3 0 1-2 4-2s5-3 2-3c-2 0-2 0-1-1l6-1c2 0 3 0 2-1 0-1 0-2 2-2 1 0 2 0 1-1l1-1v-2l4-1 4-1c-1-1 0-2 2-3l1-1c-3 0 0-2 4-2 3 0 3 0 2-1-1-2-1-2 1-2 4 0 4-1 2-3-2-1-2-1 1-1 4 0 4 0 1-1-2-1-2-1 1-1 4 0 4 0 2-1s-2-1 2-1 4 0 1-1l-3-1h4c3 0 3 0 2-1s-1-1 2-2c3 0 3 0 2-2-2-1-1-1 4-2 6-1 9-3 5-3l1-1c2-1 2-1-1-1s-3 0 2-1l6-3-80-1a514 514 0 0 0-85 4c-5 0-5 0-2 1l3 1h-3c-1 0-2 0-1 1 3 0 2 2-1 2l-9 3c3 0 2 2 0 2l-3 1-6 2c-5 0-5 1-2 1 3 1 3 1-1 1s-4 0-3 1c2 1 2 1-1 1h-4l3 1c3 1 3 1-1 1-3 0-3 0-1 1 2 2 2 3-2 3-2 0-2 0-1 2 1 1 0 1-4 1-6 0-6 0 1 2h4l-3 1-2 2c2 1 0 2-4 2-3 0-4 0-3 2l-1 1-1 1v1l-2 2-3 1c-3 0-8 2-5 2l2 2-3 1c-4 0-8 2-4 2 2 0 2 0-2 2-3 1-3 1-1 1 3 0 3 0-1 1l-3 2c2 1 2 1 0 1s-3 1-3 2l-4 1h-3l3 1c2 1 2 1-4 3-7 1-8 3-3 3 3 0 3 0 1 1l-3 1c1 1 0 1-1 1v1c2 1 1 1-2 1-5 0-5 0-5 2s0 3-3 3h-4l3 2 1 1-2 1-8 2c-7 1-9 2-6 3 1 1 0 1-1 1h-3l3 1 2 1h-2l-4 2-2 1c-2 0-2 0-1 1 2 1 1 1-2 1s-4 0-2 1c5 1 3 3-3 3-3 0-5 2-2 2 1 1 0 1-3 1s-3 0-1 1l2 1h-2l-4 1c-1 1-1 1 1 1 3 0 1 2-2 2h-4l3 1c3 1 3 1-1 1-5 0-7 2-2 2l2 1h-2c-2 0-3 1-3 2l-1 2-3 2-7 4-5 1 4 1c3 1 3 1-2 1-4 0-4 0-2 1l3 1-4 1h-4l3 1c3 1 3 1 1 1-3 0-5 2-3 2 1 1-1 1-3 1-5 1-7 2-4 3 1 1 0 1-3 1-5 1-5 3-1 3 3 0 3 0 1 1l-5 1c-2 0-3 0-2 1 3 1 2 2-2 3l-3 1c2 1 2 1-1 1l-4 3c1 1 0 1-2 1s-2 0-1 1c3 1 2 3-1 3l-6 1c-1 1-1 1 2 1l-3 1c-4 1-5 2-3 2 2 1 2 1-1 1-2 0-2 0-1 1 2 1 2 1 0 1s-3 0-2 2l-1 1-2 1-2 1-2 1c0 1-1 2-3 2-3 1-3 1-1 1s2 0-1 1-3 1-1 1c3 0 2 1-3 2-4 1-4 1-1 1s3 0 2 2l-4 1-3 1-3 1h-3l3 1c2 1 2 1 0 1-3 0-4 2-1 2 1 1 0 1-3 1l-5 2-2 1c-2 0-6 3-4 4 2 0-1 3-3 3l-2 1-4 3-4 1c1 1 0 1-1 2s-1 1 1 2 2 1 0 1l-2 1-3 1-3 1-2 1-2 2-2 1-3 1-3 3c-3 1-3 1 0 2s1 3-3 3h-5l3 2c3 1 3 1-2 1l-5 1c1 1 0 1-1 2-3 0-3 2 0 3 2 1 2 1-2 1-5 0-8 2-3 2 3 0 1 2-4 2-3 0-3 0 1 1l3 1h-3l-7 1-3 1 3 1 2 1-2 1-5 1c-2 0-2 0-1 2 1 1 1 1-1 1v1c2 1 1 1-2 1l-5 2-4 2c-2 0-2 0-1 1l1 1-2 1h-2v-1l-2-1c-2-1-2-1 0-1 2-1 2-1 1-2v-2c-1-1-1-1 2-1h2l-2-1-1-2h-3l3-1c4-1 4-3 0-3-6 0-3-3 3-3l-2-1c-3 0-3-1-1-1 4 0 5-2 1-2-5 0-5-2 0-2h4l-3-1c-4-1-6-3-4-3v-1c-2-2-2-2 3-2h4l-4-1-5-1 4-1c3 0 4-1 3-2l-4-1c-2-1-3-1-2-2v-2l1-2v-1l1-2v-1c-1-1-1-1 1-1s3 0 2-1l1-1-2-1-3-2-1-2 1-1c3-2 3-2 1-3v-1l2-1-2-2c-2 0-4-3-1-4v-1c-1-1-1-1 1-1l5-1c1-1 1-1-1-1-3 0-4-2-2-2l-2-1c-2-1-2-1 0-1s2 0 1-1-1-1 2-1c2 0 3 0 2-1v-1l-3-1h-4l3-1c3-2 3-2 1-2s-2 0-1-1c2-1 2-1 0-1-3-1-3-1 0-1 2 0 2 0 1-1v-4c2 0 2 0 0-1l-2-2h2c2-1 2-1-1-1h-3l3-1 3-1h-3c-4 0-4-1 2-2l4-1h-4c-5 0-5-2 1-2h3l-4-2-2-2c2 0 2 0 1-1l-1-2 3-1c1-1 0-1-2-1h-4l4-1 4-1-3-2-4-1h4c4 0 4-2 0-2s-5-2-1-3c2-1 2-1 0-1-3 0-3-2 0-2 3-1 3-1 2-2v-2c1-1 1-1-2-1-1 0-2 0-1-1 3 0 2-2-1-2l2-1 4-1h-3c-5 0-5-2-1-4h-2c-2 0-3 0-2-1 4-1 7-3 6-5-1-1 0-2 1-2 2-1 1-1-2-1l-4-1 4-1h4l-3-1c-2 0-3-1-1-1 3 0 3-2-1-2l-3-1 3-1 2-1h-6l4-1c3-1 3-1 1-1-4 0-4-2 0-2s3-2-1-3l-4-1h4c4 0 4 0 1-1-2-1-2-1 0-1 1 0 2 0 1-1l2-2c1-1 0-1-2-1s-2 0-1-1c2-1 2-1 0-1s-4-2-2-2c1 0 2 0 1-1l2-1c1 0 2 0 1-1l1-1-3-1c-3-2-3-2-1-2 3 0 4-2 2-2l-3-1c-1-2-1-2 3-2 3 0 3 0 1-1l-1-1-1-1c-1-1-1-1 1-1s1 0-1-1c-5-1-5-2 0-4l3-1-4-1c-2 0-3-1-1-1s3-2 1-2l1-1 2-1h-2c-3 0-3 0 0-1l3-2h-7l3-1 2-2h-2l-3-1 4-1c2 0 2 0 1-1l-4-2c-2 0-2 0-1-1l4-1c2 0 2 0 0-1v-2l-1-2-3-3h4c3-1 3-1 1-1-2-1-2-1-1-3 2-1 2-1 0-1l-2-1 3-1h3l-2-1-1-2c3 0 2-2-2-3h-4l4-1 3-1h-7l3-1 3-1h-3c-2 0-2 0 1-1l4-1h-4c-3 0-3 0-1-1l2-1c-3 0-3-2 0-2l-2-2-4-1 5-1c5-1 6-3 2-3-2 0-2 0-1-1 2-1 2-1-2-1h-4l5-1c4-1 4-2 2-3L25 0H0v126zm4-4H2c-1-1 0-1 1-1s2 0 1 1zm251 0h-2v-1l2 1zm22 0h-2v-1l2 1zm21 0h-2v-1l2 1zm10 0h-2v-1l2 1zm13 0h-2c-1-1 0-1 1-1s2 0 1 1zm11 0h-2v-1l2 1zm6 0h-2c-1-1 0-1 1-1s2 0 1 1zm16 0h-2c-1-1 0-1 1-1s2 0 1 1zm32 0h-2v-1l2 1zM45 253h-3c-1-1 0-1 2-1 1 0 2 0 1 1zM16 561h-2v-1l2 1zm12 0h-2v-1l2 1zm320 0h-2v-1l2 1zm66 0h-2v-1l2 1zm8 0h-2v-1l2 1z"/>
        <path d="M308 253h2l-2-1v1zM352 253h2l-2-1v1zM538 253h2l-2-1v1zM149 519h2l-2-1v1zM217 519h2l-2-1v1zM136 561h2l-2-1v1zM206 561h2l-2-1v1zM263 561h2c1-1 0-1-1-1s-2 0-1 1zM278 561h2l-2-1v1z"/>
    </g>
</svg>