<svg xmlns="http://www.w3.org/2000/svg" fill="currentColor" viewBox="0 0 61 60">
  <path d="M45 11c0 1.7-2.1 3-5 3s-5-1.3-5-3 2.1-3 5-3 5 1.3 5 3zm-5-1c-2 0-3 .8-3 1s1 1 3 1 3-.8 3-1-1-1-3-1zM26 36c0 1.7-2.1 3-5 3s-5-1.3-5-3 2.1-3 5-3 5 1.3 5 3zm-8 0c0 .2 1 1 3 1s3-.8 3-1-1-1-3-1-3 .8-3 1z" data-original="#000000"/>
  <path d="M1 35a1 1 0 0 1 0-.2 1 1 0 0 1 .6-1.2l5.6-2.3C7.7 29.9 9.6 29 12 29c.7 0-.3.3 4-1.5.4-1.3 2-2.2 4-2.4V9a1 1 0 0 1 .6-.5l5.6-2.4C26.7 5 28.6 4 31 4c.7 0-.3.3 4-1.5 1-3.3 9-3.3 10 0C49.2 4.3 48.2 4 49 4c2.4 0 4.3 1 4.8 2.2l5.6 2.4a1 1 0 0 1 .5.5c.2.3.1-2 .1 33.9a1 1 0 0 1-.6 1C19.3 60.7 21.4 60 21 60c-.3 0 1 .5-19.4-8a.8.8 0 0 1-.4-.5c-.3-.3-.2.9-.2-16.5zm19 8.2L3 36v14.3l17 7.2zM9 32c0 .2 1 1 3 1s3-.8 3-1-1-1-3-1-3 .8-3 1zm3 3a5.7 5.7 0 0 1-4.5-1.7l-3 1.2 16.5 7 16.4-7-2.9-1.2A5.7 5.7 0 0 1 30 35c-4.9 0-6.4-3.4-3.6-5.1l-1-.5c-1.8 2.1-7 2.1-8.8 0l-1 .5c2.8 1.7 1.2 5.1-3.6 5.1zm14-7.5c4.3 1.8 3.3 1.5 4 1.5 2.4 0 4.3 1 4.8 2.2L39 33V18.2L22 11v14c2 .3 3.6 1.2 4 2.5zm4 3.5c-2 0-3 .8-3 1s1 1 3 1 3-.8 3-1-1-1-3-1zm28-20-17 7.2V33l17-7.2zM18 28c0 .2 1 1 3 1s3-.8 3-1-1-1-3-1-3 .8-3 1zM28 7c0 .2 1 1 3 1s3-.8 3-1-1-1-3-1-3 .8-3 1zm12-5c-2 0-3 .8-3 1s1 1 3 1 3-.8 3-1-1-1-3-1zm4.4 2.4c-1.8 2.1-7 2.1-8.8 0l-1 .5A2.6 2.6 0 0 1 36 7c0 3.4-7.4 4-9.5 1.3l-3 1.2 16.5 7 16.4-7-2.9-1.2c-2 2.8-9.5 2-9.5-1.3a2.6 2.6 0 0 1 1.4-2.1zM49 6c-2 0-3 .8-3 1s1 1 3 1 3-.8 3-1-1-1-3-1zm9 22-17.6 7.4L22 43.2v14.3l36-15.2z" data-original="#000000"/>
  <path d="m24.6 52 22-9.4a1 1 0 1 1 .8 1.8l-22 9.5a1 1 0 1 1-.8-1.8zm27-11.6 3-1.3a1 1 0 1 1 .8 1.8l-3 1.3a1 1 0 1 1-.8-1.8z" data-original="#000000"/>
</svg>