<svg fill="currentColor" viewBox="0 0 512 512" width="512" height="512" xmlns="http://www.w3.org/2000/svg" >
    <path fill="#455a64" d="M256 0a138.8 138.8 0 0 0-138.7 138.7V224c0 5.9 4.8 10.7 10.7 10.7h42.7c5.9 0 10.6-4.8 10.6-10.7v-85.3a74.7 74.7 0 1 1 149.4 0V224c0 5.9 4.7 10.7 10.6 10.7H384c5.9 0 10.7-4.8 10.7-10.7v-85.3C394.6 62 332.5 0 256 0z" data-original="#455a64"/>
    <path fill="#ffc107" d="M128 213.3h256a53.3 53.3 0 0 1 53.3 53.4v192A53.3 53.3 0 0 1 384 512H128a53.3 53.3 0 0 1-53.3-53.3v-192a53.3 53.3 0 0 1 53.3-53.4z" data-original="#ffc107"/>
    <path fill="#455a64" d="M309.3 330.7a53.3 53.3 0 0 0-106.6-.5 53.3 53.3 0 0 0 29.6 48l-8.2 57.6a10.7 10.7 0 0 0 10.6 12.2h42.6a10.7 10.7 0 0 0 10.7-12.2l-8.2-57.6a53.5 53.5 0 0 0 29.5-47.5z" data-original="#455a64"/>
</svg>