<svg width="91" height="29" viewBox="0 0 91 29" fill="none" xmlns="http://www.w3.org/2000/svg">
<path d="M0 27C23.9821 10.3819 55.8379 3.40758 83 6.86163C49.9092 9.1968 31.9392 13.22 0 27Z" fill="#FFBE0B"/>
<path d="M12.5234 18.1211H11.75C11.3125 18.1211 10.6211 18.0312 9.67578 17.8516L8.78516 22.1875L5.99609 21.5664L7.36719 15.4727L8.96094 7.50391C10.7266 7.19141 12.5898 6.95312 14.5508 6.78906L16.4023 14.8281L17.832 21.8828L14.9844 22.3398L13.7305 15.4258L12.5117 9.58984C12.0664 9.58984 11.6016 9.66406 11.1172 9.8125L10.1094 15.5898L13.1328 15.6602L12.7695 18.1094C12.6836 18.1172 12.6016 18.1211 12.5234 18.1211ZM20.1758 12.9062L20.1523 10.7383L22.6484 10.4805L23.0586 12.2617L24.8516 10.293H26.2461L26.832 13.0352C26.832 13.0352 26.2188 13.168 24.9922 13.4336C24.4062 13.5586 23.8008 13.6953 23.1758 13.8438L23.0117 21.8594L20.3633 22.0938L20.1758 12.9062ZM28.4023 10.7969L30.8984 10.4805L31.3086 12.2617L33.3711 10.4805H35.6914C35.9648 10.4805 36.25 10.6328 36.5469 10.9375C37 11.3828 37.2539 11.8125 37.3086 12.2266L39.3242 10.4805H42.1484C42.25 10.4805 42.4375 10.5859 42.7109 10.7969C42.9922 11.0078 43.1836 11.1836 43.2852 11.3242C43.3945 11.4648 43.4492 11.625 43.4492 11.8047L43.0391 22.0234L40.4258 22.2344L40.3789 13.2461C40.2852 13.2148 40.1094 13.1992 39.8516 13.1992C39.2422 13.1992 38.707 13.2852 38.2461 13.457L37.4258 13.7617L37.0625 22.0234L34.543 22.2344L34.4961 13.2461C34.4023 13.2148 34.2266 13.1992 33.9688 13.1992C33.3125 13.1992 32.7539 13.2852 32.293 13.457L31.4961 13.7383L31.1797 21.9297L28.6133 22.0938L28.4023 10.7969ZM55.6367 14.1016C55.6523 14.3672 55.6602 14.7031 55.6602 15.1094C55.6602 15.5156 55.6328 16.0039 55.5781 16.5742C55.5312 17.1445 55.4688 17.6914 55.3906 18.2148C55.25 19.2461 55.1133 19.9688 54.9805 20.3828C54.8555 20.7969 54.7734 21.0742 54.7344 21.2148C54.7031 21.3555 54.6602 21.4844 54.6055 21.6016C54.4805 21.875 54.3125 22.0469 54.1016 22.1172C53.8984 22.1875 53.6445 22.2383 53.3398 22.2695C53.043 22.3008 52.7422 22.3203 52.4375 22.3281C51.9219 22.3516 51.5 22.3633 51.1719 22.3633C49.2656 22.3633 48.1172 22.1406 47.7266 21.6953C47.3203 21.2422 46.9922 19.6719 46.7422 16.9844C46.6562 16.0625 46.6133 15.3906 46.6133 14.9688C46.6133 14.5391 46.6172 14.2031 46.625 13.9609C46.6328 13.7109 46.6484 13.4727 46.6719 13.2461C46.7422 12.4102 46.8125 11.8828 46.8828 11.6641C46.9609 11.4453 47.043 11.2852 47.1289 11.1836C47.3086 10.9727 47.6172 10.8164 48.0547 10.7148C50.3438 10.207 52.7266 9.95312 55.2031 9.95312L55.5078 9.96484C55.5391 9.97266 55.5664 9.97656 55.5898 9.97656L55.8008 12.6836C55.6133 12.668 55.4453 12.6602 55.2969 12.6602H54.7461C53.2773 12.6602 52.1133 12.7305 51.2539 12.8711C50.3945 13.0039 49.8867 13.0938 49.7305 13.1406C49.6211 13.9453 49.5664 14.9805 49.5664 16.2461C49.5664 17.5039 49.7109 18.7109 50 19.8672H52.2734C52.5234 18.6953 52.6992 17.1328 52.8008 15.1797L52.8359 14.4883L55.6367 14.1016ZM59.1992 12.9062L59.1758 10.7383L61.6719 10.4805L62.082 12.2617L63.875 10.293H65.2695L65.8555 13.0352C65.8555 13.0352 65.2422 13.168 64.0156 13.4336C63.4297 13.5586 62.8242 13.6953 62.1992 13.8438L62.0352 21.8594L59.3867 22.0938L59.1992 12.9062ZM67.25 10.5039L70.0273 9.92969L70.25 19.3867C70.5781 19.4961 70.832 19.5508 71.0117 19.5508C71.1992 19.5508 71.3555 19.5508 71.4805 19.5508C71.6133 19.543 71.7656 19.5234 71.9375 19.4922C72.3672 19.4062 72.8203 19.2422 73.2969 19L73.3906 10.6211L76.0508 10.293L76.1914 23.4766C76.1914 23.875 75.9375 24.2539 75.4297 24.6133C74.1328 25.5117 73.1797 26.1523 72.5703 26.5352L70.8828 27.5781C70.3516 27.8828 69.832 28.168 69.3242 28.4336L67.8945 25.8672C70.707 24.5547 72.6289 23.5859 73.6602 22.9609L73.4844 20.0781L71.7383 22H68.7383C68.5039 21.9766 68.2656 21.8633 68.0234 21.6602C67.6484 21.3555 67.4609 21.0273 67.4609 20.6758L67.25 10.5039Z" fill="black"/>
</svg>
