<svg fill="currentColor" stroke="currentColor" viewBox="0 0 375 375" width="512" height="512"
    xmlns="http://www.w3.org/2000/svg">
    <circle cx="187.5" cy="112.5" r="37.5" data-original="#000000"/>
    <path d="M206.3 168.8h-35.1l-62.8-15.7-15.2-45.7 36.7-11.5-22.3-71.6L0 57.9l22.3 71.6 34.9-10.9 22 65.9 70.8 17.7v79h.1v75.1a18.7 18.7 0 0 0 37.4 0v-75.1h.1v75.1a18.7 18.7 0 0 0 37.4 0v-75.1h.1v-18.7h18.8v-56.2a37.6 37.6 0 0 0-37.6-37.5z" data-original="#000000"/>
    <circle cx="318.7" cy="112.5" r="37.5" data-original="#000000"/>
    <path d="M337.5 168.8H300a37.5 37.5 0 0 0-37.5 37.5v56.2h18.7v18.7h.1v75.1a18.7 18.7 0 0 0 37.4 0v-75.1h.1v75.1a18.7 18.7 0 0 0 37.4 0v-75.1h.1v-18.7H375v-56.2a37.4 37.4 0 0 0-37.5-37.5z" data-original="#000000"/>
    <circle cx="56.2" cy="225" r="37.5" data-original="#000000"/>
    <path d="M75 281.3H37.5A37.5 37.5 0 0 0 0 318.8V375h112.5v-56.2A37.4 37.4 0 0 0 75 281.3z" data-original="#000000"/>
    <circle cx="253.1" cy="37.5" r="37.5" data-original="#000000"/>
</svg>

