<svg xmlns="http://www.w3.org/2000/svg" viewBox="-50 120 600 600">
    <defs>
        <clipPath id="a" clipPathUnits="userSpaceOnUse">
            <path d="M0 512h512V0H0Z" data-original="#000000" />
        </clipPath>
    </defs>
    <g fill="none" stroke="currentColor" stroke-linecap="round" stroke-linejoin="round" stroke-miterlimit="10" transform="matrix(1 0 0 -1 0 682.7)">
        <path d="m0 0 4-67a30 30 0 0 0-29.9-31.8h-433.3a30 30 0 0 0-30 31.8l13.2 216.7h97.2" data-original="#000000" transform="translate(498.5 106.3)" />
        <path d="M0 0h334.7l7-114.6" data-original="#000000" transform="translate(154.8 256)" />
        <path d="m0 0 13 216.7a30 30 0 0 1-29.9 31.8H-450a30 30 0 0 1-30-31.8L-467 0" data-original="#000000" transform="translate(489.5 256)" />
        <path d="M0 0v48a25.6 25.6 0 0 0 25.6 25.5h67.2A25.6 25.6 0 0 0 118.4 48V0" data-original="#000000" transform="translate(57.5 142.8)" />
        <path d="M0 0v-41.7a59.2 59.2 0 0 1 118.4 0V0L89.6 12.5a41.3 41.3 0 0 1-25.8 2.3z" data-original="#000000" transform="translate(57.5 148)" />
        <path d="M0 0v-11.4" data-original="#000000" transform="translate(88.1 126.8)" />
        <path d="M0 0v-11.4" data-original="#000000" transform="translate(145.2 126.8)" />
        <path d="M0 0a23.8 23.8 0 0 1 11.2-3 23.9 23.9 0 0 1 11.6 3" data-original="#000000" transform="translate(105.2 82)" />
        <path d="M0 0h188.7" data-original="#000000" transform="translate(255.8 216.4)" />
        <path d="M0 0h188.7" data-original="#000000" transform="translate(255.8 171.4)" />
        <path d="M0 0h188.7" data-original="#000000" transform="translate(255.8 126.4)" />
        <path d="M0 0a63 63 0 0 1 42.3 15.5c4.6 4.5 11.6 11 10 18.8C50.6 42.6 40.7 49 33 47c-7.4-2-12.5-11.7-11.3-19.1C25.2 6 84-9.5 98 6.8c5.2 6.2 3.5 16.2 7.9 17.2S116 16 120 8.5" data-original="#000000" transform="translate(280.4 47.1)" />
        <path d="m0 0 17.3 45.5a1 1 0 0 0 2 0L36.5 0" data-original="#000000" transform="translate(95 357.2)" />
        <path d="M0 0h25.7" data-original="#000000" transform="translate(100.4 368.5)" />
        <path d="M0 0s-8.3 7-18 4c-9-2.7-10.3-13-3.8-17.3 0 0 6.4-2.8 13.4-5.4 17-6.3 9.7-22.7-4-22.7-6.8 0-12.6 3-16 6.8" data-original="#000000" transform="translate(182.9 398.6)" />
        <path d="M0 0s-8.3 7-18 4c-9-2.7-10.3-13-3.8-17.3 0 0 6.4-2.8 13.4-5.4 17-6.3 9.7-22.7-4-22.7-6.8 0-12.6 3-16 6.8" data-original="#000000" transform="translate(238 398.6)" />
        <path d="M0 0h25.5" data-original="#000000" transform="translate(435.4 403.3)" />
        <path d="M0 0v-44.7" data-original="#000000" transform="translate(448 401.9)" />
        <path d="m0 0 19.4-22" data-original="#000000" transform="translate(393.3 379.2)" />
        <path d="M0 0v-46.2" data-original="#000000" transform="translate(387.7 403.3)" />
        <path d="M0 0c0-6.6-5.8-12-12.7-12h-12.2v24h12.2C-5.8 12 0 6.6 0 0Z" data-original="#000000" transform="translate(412.7 391.3)" />
        <path d="M0 0v-46.2" data-original="#000000" transform="translate(51.1 403.3)" />
        <path d="M0 0c0-7.2-6-13-13.3-13H-26v26h12.8C-6 13 0 7.2 0 0Z" data-original="#000000" transform="translate(77.3 390.3)" />
        <path d="M0 0v-46.2" data-original="#000000" transform="translate(264.3 403.3)" />
        <path d="M0 0c0-7.2-6-13-13.3-13H-26v26h12.8C-6 13 0 7.2 0 0Z" data-original="#000000" transform="translate(290.4 390.3)" />
        <path d="M0 0a23 23 0 1 0-46.2 0A23 23 0 0 0 0 0Z" data-original="#000000" transform="translate(361.8 380.3)" />
    </g>
</svg>