<svg xmlns="http://www.w3.org/2000/svg" viewBox="0 0 512 512">
    <path fill="#a4fcc4" d="M50.2 155.6h411.6v200.8H50.2z" data-original="#a4fcc4"/>
    <g fill="#020288">
        <path d="M502 105.4H10a10 10 0 0 0-10 10v281.2a10 10 0 0 0 10 10h492a10 10 0 0 0 10-10V115.4a10 10 0 0 0-10-10zm-10 281.2H20V125.4h472z" data-original="#020288"/>
        <path d="M90.3 308a10 10 0 0 0 10-10V272a3896.5 3896.5 0 0 1 15.7 0 36 36 0 0 0 36.5-35.6 36 36 0 0 0-36.5-35.5H90.3a10 10 0 0 0-10 10V298a10 10 0 0 0 10 10zm25.7-87.2c9 0 16.5 7.1 16.5 15.5s-7.6 15.5-16.5 15.5h-15.6v-31zm181 90.4c18.5 0 34.5-12 37.3-28 2-12-3.6-27.8-26-35.9a496 496 0 0 1-25.3-10 7.4 7.4 0 0 1-2.9-7.1c.6-3.9 3.7-7 8.4-8.4 13.9-4 26.6 5.8 26.8 6a10 10 0 0 0 12.7-15.4c-.8-.7-20.9-17-45.2-9.8a30.6 30.6 0 0 0-22.5 24.8 27.3 27.3 0 0 0 13.9 27.8c.5.2 13.1 5.8 27.4 11 4.3 1.5 14.3 6 13 13.5-1 5.7-7.9 11.5-17.6 11.5a34 34 0 0 1-24.8-10.2 10 10 0 1 0-14.7 13.6 54.3 54.3 0 0 0 39.5 16.6zm97 0c18.4 0 34.5-12 37.3-28 2-12-3.6-27.8-26-35.9a495.7 495.7 0 0 1-25.3-10 7.4 7.4 0 0 1-3-7.1c.6-3.9 3.8-7 8.4-8.4 14-4 26.6 5.8 27 6a10 10 0 0 0 12.6-15.4c-.9-.7-21-17-45.2-9.8a30.6 30.6 0 0 0-22.5 24.8 27.3 27.3 0 0 0 13.8 27.8c.6.2 13.2 5.8 27.5 11 4.3 1.5 14.3 6 13 13.5-1 5.7-7.9 11.5-17.6 11.5a34 34 0 0 1-24.8-10.2 10 10 0 1 0-14.7 13.6 54.3 54.3 0 0 0 39.5 16.6zm-238.3-5.4c5.1 2 10.9-.7 12.8-5.8l5.3-14h37.7l5.2 14a10 10 0 0 0 9.4 6.4c7 0 11.8-7 9.4-13.5l-31.7-84.8a11.9 11.9 0 0 0-11-7.3c-5 0-9.4 3.1-11.2 7.7l-31.8 84.4c-2 5.2.7 11 5.9 12.9zm37-70 11.4 30.2h-22.8z" data-original="#020288"/>
    </g>
</svg>