<svg xmlns="http://www.w3.org/2000/svg" fill="currentColor" stroke="currentColor" viewBox="0 0 80.1 80.1">
    <path d="M48.4 18c3.7 2.2 6.3 6.2 6.7 10.7a11.7 11.7 0 0 0 5 1.2 11.8 11.8 0 1 0-11.7-12zm-7.7 24a11.8 11.8 0 1 0 0-23.5 11.8 11.8 0 0 0 0 23.5zm5 .8h-10a15 15 0 0 0-15 15V70.2l.8.3c8 2.5 14.8 3.3 20.5 3.3a42 42 0 0 0 17.8-3.4l.8-.4V57.8a15 15 0 0 0-15-15zM65 30.7H55a14.5 14.5 0 0 1-4.4 10c7.4 2.2 12.8 9 12.8 17.2v3.7c9.8-.3 15.4-3.1 15.8-3.3l.7-.4h.1V45.7a15 15 0 0 0-15-15zm-45-.8c2.2 0 4.4-.7 6.2-1.9a14.5 14.5 0 0 1 5.5-9.2V18A11.8 11.8 0 1 0 20 29.9zm10.5 10.8a14.5 14.5 0 0 1-4.5-10h-11A15 15 0 0 0 0 45.7V58.1l.9.2c6.3 2 12 3 17 3.2V58c0-8.1 5.3-15 12.7-17.2z" data-original="#000000"/>
</svg>