
<svg xmlns="http://www.w3.org/2000/svg" fill="currentColor" stroke="currentColor" viewBox="0 0 511 512">
    <path d="M401.1 289.2a111.5 111.5 0 0 0 0 222.8 111.5 111.5 0 0 0 0-222.8zm0 143.5a32.1 32.1 0 1 1 0-64.2 32.1 32.1 0 0 1 0 64.2zM111.9 222.8a111.5 111.5 0 0 0 78.8-190.2c-21-21-49-32.6-78.8-32.6C82 0 54.2 11.6 33 32.6A111.5 111.5 0 0 0 112 222.8zm0-143.5a32.1 32.1 0 1 1 0 64.2 32.1 32.1 0 0 1 0-64.2zM512.5 47A46.8 46.8 0 0 0 465.4 0 46.8 46.8 0 0 0 432 13.8L14.3 431.5A47.2 47.2 0 0 0 81 498.2L498.7 80.5A46.8 46.8 0 0 0 512.5 47zm0 0" class="hovered-path" data-original="#000000"/>
</svg>