<svg fill="currentColor" stroke="currentColor" viewBox="0 0 64 64" width="512" height="512"
    xmlns="http://www.w3.org/2000/svg">
    <path d="M60.6 15.8C59.5 9.5 54.4 4.6 48.1 3.7l-3-.4c-8.7-1.2-17.5-1.2-26.1 0l-3 .4C9.6 4.6 4.5 9.5 3.4 15.8 1.6 26.5 1.6 37.4 3.4 48l.1.4c1.1 6.2 5.9 11 12.1 12.1l.4.1c2.9.5 5.8.8 8.7 1.1h14.9c2.9-.2 5.8-.6 8.7-1.1l.4-.1c6.2-1.1 11-5.9 12.1-12.1l.1-.4c1.6-10.6 1.6-21.5-.3-32.2zM42 22.7h-5.4v22.9c0 1.8-1.5 3.3-3.3 3.3h-2.8c-1.8 0-3.3-1.5-3.3-3.3V22.7h-5.4c-2.5 0-3.8-3-2-4.8l9.4-9.4C30.7 7 33 7 34.5 8.5l9.4 9.4c1.9 1.8.6 4.8-1.9 4.8z"/>
</svg>