<svg xmlns="http://www.w3.org/2000/svg" fill="currentColor" stroke="currentColor" stroke-linecap="round" stroke-linejoin="round" viewBox="0 0 512 512">
    <path  d="M436 30H331v45a15 15 0 0 1-15 15H196a15 15 0 0 1-15-15V30H76a15 15 0 0 0-15 15v452a15 15 0 0 0 15 15h360a15 15 0 0 0 15-15V45a15 15 0 0 0-15-15ZM241 437a15 15 0 0 1-15 15h-90a15 15 0 0 1-15-15v-60a15 15 0 0 1 15-15h90a15 15 0 0 1 15 15v60Zm-4.4-169.4-60 60a15 15 0 0 1-21.2 0l-30-30a15 15 0 1 1 21.2-21.2l19.4 19.4 49.4-49.4a15 15 0 1 1 21.2 21.2Zm0-122-60 60a15 15 0 0 1-21.2 0l-30-30a15 15 0 1 1 21.2-21.2l19.4 19.4 49.4-49.4a15 15 0 1 1 21.2 21.2ZM376 422h-90a15 15 0 1 1 0-30h90a15 15 0 1 1 0 30Zm0-120h-90a15 15 0 1 1 0-30h90a15 15 0 1 1 0 30Zm0-122h-90a15 15 0 1 1 0-30h90a15 15 0 1 1 0 30Z"/>
    <path  d="M301 15a15 15 0 0 0-15-15h-60a15 15 0 0 0-15 15v45h90V15Z"/>
</svg>