<svg fill="currentColor" stroke="currentColor" viewBox="0 0 26 26" width="512" height="512"
    xmlns="http://www.w3.org/2000/svg">
    <path d="M8.375 25.015h13.94c1.18 0 2.13-.96 2.13-2.13V4.325c0-1.84-1.5-3.34-3.34-3.34H4.895a3.33 3.33 0 0 0-3.34 3.34v4.74c0 .86.7 1.56 1.56 1.56h3.14v12.26c0 1.17.95 2.13 2.12 2.13zm4.29-17.08a.996.996 0 0 1 1.41 0l.51.51 1.74-1.74c.39-.39 1.02-.39 1.42 0 .39.39.39 1.02 0 1.41l-2.45 2.45a.99.99 0 0 1-1.42 0l-1.21-1.21c-.39-.39-.39-1.03 0-1.42zm-1.42 6h8.2c.55 0 1 .45 1 1 0 .56-.45 1-1 1h-8.2c-.55 0-1-.44-1-1 0-.55.45-1 1-1zm0 5.08h8.2c.55 0 1 .45 1 1s-.45 1-1 1h-8.2c-.55 0-1-.45-1-1s.45-1 1-1zm-5-10.39h-2.69v-4.3c0-.726.568-1.34 1.35-1.34.757 0 1.34.63 1.34 1.44z" data-original="#000000"/>
</svg>
