<svg xmlns="http://www.w3.org/2000/svg" viewBox="0 0 512 512">
    <path fill="#fff69b" fill-rule="evenodd" d="M134.5 457h243l-1.8-1.7L269.6 349a19.3 19.3 0 0 0-27.2 0L136.3 455.3zm-11.1-296.2C142.2 216 194.6 256 256 256s113.8-40 132.6-95.2h-1.9c-31.6 0-33.8-10-65.3-10-31.6 0-33.8 10-65.4 10s-33.8-10-65.4-10-33.7 10-65.3 10z" clipRule="evenodd" data-original="#fff69b"/>
    <g fill="#020288">
        <path d="M406 116V63.3A30 30 0 0 0 426 35V10a10 10 0 0 0-10-10H96a10 10 0 0 0-10 10v25a30 30 0 0 0 20 28.3V116c0 63.7 40 118.3 96.1 140A150.3 150.3 0 0 0 106 396v52.7A30 30 0 0 0 86 477v25a10 10 0 0 0 10 10h320a10 10 0 0 0 10-10v-25a30 30 0 0 0-20-28.3V396c0-63.7-40-118.3-96.1-140A150.3 150.3 0 0 0 406 116zM106 20h300v15a10 10 0 0 1-10 10H116a10 10 0 0 1-10-10zm300 472H106v-15a10 10 0 0 1 10-10h280a10 10 0 0 1 10 10v15zm-20-96v51H126v-51c0-71.7 58.3-130 130-130s130 58.3 130 130zM256 246c-71.7 0-130-58.3-130-130V65h260v51c0 71.7-58.3 130-130 130z" data-original="#020288"/>
        <path d="M218.3 191.8a10 10 0 1 0 0 20 10 10 0 0 0 0-20zm99-13a10 10 0 1 0 0 20 10 10 0 0 0 0-20zM240 421.5a10 10 0 0 0 0-20 10 10 0 1 0 0 20z" data-original="#020288"/>
    </g>
</svg>